<?xml version="1.0" encoding="utf-8"?>
<!-- Generator: Adobe Illustrator 18.1.0, SVG Export Plug-In . SVG Version: 6.00 Build 0)  -->
<!DOCTYPE svg PUBLIC "-//W3C//DTD SVG 1.1//EN" "http://www.w3.org/Graphics/SVG/1.1/DTD/svg11.dtd">
<svg version="1.1" id="Layer_1" xmlns="http://www.w3.org/2000/svg" xmlns:xlink="http://www.w3.org/1999/xlink" x="0px" y="0px"
	 viewBox="-5.8 -7 61 61" enable-background="new -5.8 -7 61 61" xml:space="preserve">
<g>
	<g>
		<path fill="#787878" d="M24.7-0.5c-13.2,0-24,10.7-24,24s10.7,24,24,24s24-10.7,24-24S37.9-0.5,24.7-0.5z M24.7,44
			C13.3,44,4.1,34.8,4.1,23.5C4.1,12.2,13.3,3,24.7,3s20.5,9.2,20.5,20.5C45.2,34.8,36,44,24.7,44z"/>
		<path fill="#787878" d="M24.7,9.1c-7.9,0-14.4,6.4-14.4,14.4c0,7.9,6.4,14.4,14.4,14.4s14.4-6.4,14.4-14.4
			C39.1,15.6,32.6,9.1,24.7,9.1z M24.7,34.6c-6.1,0-11.1-5-11.1-11.1s5-11.1,11.1-11.1c6.1,0,11.1,5,11.1,11.1S30.8,34.6,24.7,34.6z
			"/>
	</g>
	<g>
		<circle fill="#F1C81B" cx="24.7" cy="23.5" r="5.5"/>
	</g>
</g>
<g>
	<g>
		<circle fill="#787878" cx="604" cy="483.1" r="24"/>
	</g>
	<g>
		<circle fill="#FFFFFF" cx="604" cy="483.1" r="20.5"/>
	</g>
	<g>
		<circle fill="#787878" cx="604" cy="483.1" r="14.4"/>
	</g>
	<g>
		<circle fill="#FFFFFF" cx="604" cy="483.1" r="11.1"/>
	</g>
	<g>
		<circle fill="#F1C81B" cx="604" cy="483.1" r="5.5"/>
	</g>
</g>
</svg>
