<?xml version="1.0" encoding="utf-8"?>
<!-- Generator: Adobe Illustrator 18.1.0, SVG Export Plug-In . SVG Version: 6.00 Build 0)  -->
<!DOCTYPE svg PUBLIC "-//W3C//DTD SVG 1.1//EN" "http://www.w3.org/Graphics/SVG/1.1/DTD/svg11.dtd">
<svg version="1.1" id="Layer_1" xmlns="http://www.w3.org/2000/svg" xmlns:xlink="http://www.w3.org/1999/xlink" x="0px" y="0px"
	 viewBox="0 10.7 50 26.7" enable-background="new 0 10.7 50 26.7" xml:space="preserve">
<g>
	<path fill="#222222" d="M40.1,18.3c0-0.2,1.7-0.2,1.7,0V21c0.5-0.2,1-0.3,1.6-0.3h0.3c2.1,0,3.8,1.7,3.8,3.8v4.7
		c0,0.2-1.7,0.2-1.7,0v-4.7c0-1.2-0.9-2.1-2.1-2.1h-0.3c-0.6,0-1.1,0.2-1.6,0.6v6.2c0,0.2-1.7,0.2-1.7,0V18.3z"/>
	<path fill="#222222" d="M35.3,22.3h-1.1c-0.2,0-0.2-1.6,0-1.6h1.1v-2.4c0-0.2,1.7-0.2,1.7,0v2.4h1.6c0.2,0,0.2,1.6,0,1.6H37v4.9
		c0,0.7,0.5,0.6,1.2,0.6h0.4c0.2,0,0.2,1.7,0,1.7h-0.4c-1.9,0-3-0.3-3-2.3V22.3z"/>
	<path fill="#222222" d="M30.9,18.3c0-0.2,1.7-0.2,1.7,0v8.1c0,0.9,0.1,1.1,0.2,1.2c0.1,0.2,0.6,0.2,0.7,0.2c0.5,0,0.5,1.7,0,1.7
		c-0.6,0-1.6,0.1-2.1-0.4c-0.4-0.4-0.5-0.9-0.5-1.6V18.3z"/>
	<path fill="#222222" d="M27.9,29.2c-0.5,0.2-1,0.4-1.6,0.4H26c-2.1,0-3.9-1.7-3.9-3.8v-1.1c0-2.1,1.7-3.8,3.9-3.8
		c1.6,0,2.4,0.2,3.6,0.7v7.9c0,0.2-1.7,0.2-1.7,0L27.9,29.2L27.9,29.2z M27.9,22.8c-0.5-0.2-0.9-0.3-1.6-0.4H26
		c-1.2,0-2.1,0.9-2.1,2.1v1.1c0,1.2,0.9,2.1,2.1,2.1h0.3c0.6,0,1.1-0.2,1.6-0.6C27.9,27.1,27.9,22.8,27.9,22.8z"/>
	<path fill="#222222" d="M16.9,29.5c-2.1,0-3.8-1.7-3.8-3.8v-1.1c0-2.1,1.7-3.8,3.8-3.8h0.1c2.1,0,3.8,1.7,3.8,3.8V25
		c0,0.4-0.1,0.9-0.4,0.9h-5.7c0.1,1.1,1.1,1.9,2.1,1.9h0.3c0.9,0,1.6-0.5,1.8-1.1c0.2-0.4,1.7,0.5,1.5,0.9c-0.5,0.9-1.7,1.9-3.3,1.9
		L16.9,29.5L16.9,29.5z M16.9,22.4c-1.1,0-2,0.8-2.1,1.9h4.3C18.9,23.2,18,22.4,16.9,22.4L16.9,22.4z"/>
	<path fill="#222222" d="M8.3,21.4c2.3-1,4.3-0.6,4.3-0.6c0.4,0.1-0.1,1.7-0.4,1.7c-0.2-0.1-0.3-0.1-0.4-0.1h-0.3
		c-0.6,0.1-1.1,0.2-1.6,0.4v6.5c0,0.2-1.7,0.2-1.7,0L8.3,21.4L8.3,21.4z"/>
	<path fill="#222222" d="M3.4,22.3H2.3c-0.2,0-0.2-1.6,0-1.6h1.1v-2.4c0-0.2,1.7-0.2,1.7,0v2.4h1.7c0.2,0,0.2,1.6,0,1.6H5.2v4.9
		c0,0.7,0.5,0.6,1.2,0.6h0.4c0.2,0,0.2,1.7,0,1.7H6.5c-1.9,0-3-0.3-3-2.3L3.4,22.3L3.4,22.3z"/>
	<path fill="#FFD500" d="M31.3,12.4c-0.7,0-1.3,0.6-1.3,1.3v0.1l0,0c0,0.1,0,0.1-0.1,0.1c-0.2,0.2-0.5,0.4-0.7,0.6
		c-0.8,0.6-1.7,1.1-2.5,1.6c-1.2,0.5-2.5,0.9-3.8,1.1c-0.6,0.1-1.2,0.2-1.8,0.2c-0.7,0-1.4,0-2.1-0.1c-0.6-0.1-1.2-0.2-1.7-0.3
		c-1.3-0.3-2.5-0.8-3.7-1.3c-0.9-0.5-1.7-1.1-2.4-1.7c-0.1-0.1-0.1-0.1-0.1-0.2l0,0v-0.1c0-0.8-0.6-1.3-1.3-1.3
		c-0.7,0-1.3,0.6-1.3,1.3S8.9,15,9.6,15l0,0c0,0,0,0,0.1,0c0.1,0,0.1,0,0.2,0.1c1.1,0.9,2.2,1.7,3.4,2.3c1.1,0.5,2.4,0.9,3.6,1.2
		c1,0.1,1.9,0.3,2.8,0.3c0.4,0,0.8,0,1.2,0c0.5,0,1.1-0.1,1.7-0.1c0.6-0.1,1.1-0.2,1.7-0.3c1.4-0.4,2.7-0.8,4-1.6
		c0.8-0.4,1.5-0.9,2.1-1.4c0.2-0.2,0.5-0.4,0.6-0.5c0.1,0,0.1-0.1,0.1-0.1l0,0c0.1,0,0.1,0,0.1,0c0.7,0,1.3-0.6,1.3-1.3
		C32.6,13,32,12.4,31.3,12.4z"/>
	<text transform="matrix(1 0 0 1 13.1728 33.9819)" fill="#222222" font-family="'HelveticaNeue'" font-size="3.4615">boost export revenues</text>
</g>
</svg>
