<?xml version="1.0" encoding="utf-8"?>
<!-- Generator: Adobe Illustrator 18.1.0, SVG Export Plug-In . SVG Version: 6.00 Build 0)  -->
<!DOCTYPE svg PUBLIC "-//W3C//DTD SVG 1.1//EN" "http://www.w3.org/Graphics/SVG/1.1/DTD/svg11.dtd">
<svg version="1.1" id="Layer_1" xmlns="http://www.w3.org/2000/svg" xmlns:xlink="http://www.w3.org/1999/xlink" x="0px" y="0px"
	 viewBox="-5.8 -7 61 61" enable-background="new -5.8 -7 61 61" xml:space="preserve">
<g>
	<g>
		<circle fill="#787878" cx="604" cy="483.1" r="24"/>
	</g>
	<g>
		<circle fill="#FFFFFF" cx="604" cy="483.1" r="20.5"/>
	</g>
	<g>
		<circle fill="#787878" cx="604" cy="483.1" r="14.4"/>
	</g>
	<g>
		<circle fill="#FFFFFF" cx="604" cy="483.1" r="11.1"/>
	</g>
	<g>
		<circle fill="#F1C81B" cx="604" cy="483.1" r="5.5"/>
	</g>
</g>
<path fill="#787878" d="M50.2,15.3l-7.7-7.7c-0.1-0.3-0.6-0.4-0.9-0.4H7.8c-0.3,0-0.6,0.1-0.9,0.4l-7.7,7.7
	c-0.4,0.6-0.6,1.3-0.1,1.8l24.6,31.1c0.3,0.3,0.6,0.4,1,0.4c0.4,0,0.9-0.3,1-0.4l24.6-31.1C50.6,16.5,50.6,15.7,50.2,15.3z
	 M7.9,10.3l4.5,4.5H3.2L7.9,10.3z M31.9,17.5l-7.4,24.2l-7.4-24.2H31.9z M19,14.8l5.5-4.7l5.5,4.7H19z M27.9,9.6h10.5l-4.8,4.8
	L27.9,9.6z M15.6,14.5l-4.9-4.9h10.6L15.6,14.5z M14.7,17.5l7.4,24l-19.1-24H14.7z M34.4,17.5h12.2L26.7,42.7L34.4,17.5z M36.7,14.8
	l4.8-4.8l4.8,4.8H36.7z"/>
<g>
	<path fill="#F1C81B" d="M34.9-1c-0.3-0.1-0.6,0-0.7,0.3l-2.1,4.9c-0.1,0.3,0,0.6,0.3,0.7h0.1c0.1,0,0.3-0.1,0.6-0.3l2.1-4.9
		C35.4-0.6,35.2-0.9,34.9-1z"/>
	<path fill="#F1C81B" d="M44.4,1.5c-0.1-0.1-0.6-0.1-0.7,0l-3.6,3.6c-0.1,0.1-0.1,0.6,0,0.7s0.3,0.1,0.4,0.1s0.3,0,0.3-0.1l3.6-3.6
		C44.6,2.1,44.6,1.6,44.4,1.5z"/>
	<path fill="#F1C81B" d="M5.7,1.6C5.6,1.5,5.1,1.5,5,1.6S4.8,2.2,5,2.4l3.4,3.4c0.1,0.1,0.3,0.1,0.4,0.1c0.1,0,0.3,0,0.3-0.1
		c0.1-0.1,0.1-0.6,0-0.7L5.7,1.6z"/>
	<path fill="#F1C81B" d="M15.5-0.7C15.4-1,15.1-1.2,14.8-1s-0.4,0.4-0.3,0.7l2.1,4.9c0,0.1,0.3,0.3,0.4,0.3c0,0,0.1,0,0.3,0
		c0.3-0.1,0.4-0.4,0.3-0.7L15.5-0.7z"/>
	<path fill="#F1C81B" d="M24.7-1.6c-0.3,0-0.6,0.3-0.6,0.6v5.3c0,0.3,0.3,0.6,0.6,0.6c0.3,0,0.6-0.3,0.6-0.6V-1
		C25.3-1.3,25-1.6,24.7-1.6z"/>
</g>
</svg>
